<svg width="130" height="130" viewBox="0 0 130 130" fill="none" xmlns="http://www.w3.org/2000/svg">
<path fill-rule="evenodd" clip-rule="evenodd" d="M16.6272 86.7286C16.4578 86.4356 16.2898 86.1456 16.1234 85.8586L16.118 85.8491C16.2861 86.1393 16.4559 86.4324 16.6272 86.7286Z" fill="white"/>
<path d="M22.4108 34.2684L16.6801 44.18C16.4889 44.5106 16.2997 44.8373 16.1125 45.1603L16.1118 45.1614C13.1135 50.3359 10.6526 54.5828 9.65648 59.2626C8.78116 63.3747 8.78118 67.6253 9.65649 71.7374C10.6527 76.4172 13.1135 80.6641 16.1119 85.8386L16.1156 85.8451L16.118 85.8491L16.1234 85.8586C16.2898 86.1456 16.4578 86.4356 16.6272 86.7286L16.6801 86.82L22.4108 96.7316C22.6007 97.06 22.7881 97.3849 22.9735 97.7061L22.9744 97.7078C25.967 102.895 28.4166 107.141 31.968 110.334C35.0848 113.136 38.7522 115.249 42.7309 116.54C47.2594 118.009 52.1456 118.005 58.1458 117.999C58.516 117.999 58.8904 117.999 59.2693 117.999H70.7307C71.1095 117.999 71.484 117.999 71.8542 117.999C77.8543 118.005 82.7406 118.009 87.269 116.54C91.2478 115.249 94.9152 113.136 98.032 110.334C101.583 107.141 104.033 102.895 107.026 97.7078C107.211 97.386 107.399 97.0606 107.589 96.7316L113.32 86.82C113.51 86.4904 113.699 86.1647 113.886 85.8425L113.888 85.8385C116.887 80.6641 119.347 76.4172 120.344 71.7374C121.219 67.6253 121.219 63.3747 120.344 59.2626C119.347 54.5828 116.887 50.336 113.888 45.1616C113.701 44.8382 113.511 44.5111 113.32 44.18L107.589 34.2684C107.399 33.9394 107.211 33.614 107.026 33.2923C104.033 28.1053 101.583 23.8594 98.032 20.6663C94.9152 17.864 91.2478 15.7509 87.269 14.46C82.7406 12.9907 77.8543 12.9952 71.8542 13.0007C71.484 13.001 71.1095 13.0013 70.7307 13.0013L59.2693 13.0013C58.8904 13.0013 58.516 13.001 58.1458 13.0007C52.1456 12.9952 47.2594 12.9907 42.7309 14.46C38.7522 15.7509 35.0847 17.864 31.968 20.6663C28.4166 23.8593 25.967 28.1052 22.9744 33.2922C22.7888 33.614 22.601 33.9394 22.4108 34.2684Z" fill="white"/>
<path d="M70.8259 22C78.0518 22 81.6648 22 84.8992 23.0285C87.761 23.9386 90.3954 25.4272 92.6316 27.3978C95.1589 29.625 96.9653 32.6873 100.578 38.812L106.404 48.688C110.017 54.8127 111.824 57.875 112.531 61.1307C113.156 64.0114 113.156 66.9886 112.531 69.8693C111.824 73.125 110.017 76.1873 106.404 82.312L100.578 92.188C96.9653 98.3127 95.1589 101.375 92.6316 103.602C90.3954 105.573 87.761 107.061 84.8992 107.971C81.6648 109 78.0518 109 70.8259 109H59.1741C51.9481 109 48.3352 109 45.1008 107.971C42.239 107.061 39.6046 105.573 37.3684 103.602C34.8411 101.375 33.0346 98.3127 29.4217 92.188L23.5957 82.312C19.9828 76.1873 18.1763 73.125 17.4692 69.8693C16.8436 66.9886 16.8436 64.0114 17.4692 61.1307C18.1763 57.875 19.9828 54.8127 23.5957 48.688L29.4217 38.812C33.0346 32.6873 34.8411 29.625 37.3684 27.3978C39.6046 25.4272 42.239 23.9386 45.1008 23.0286C48.3351 22 51.9481 22 59.1741 22L70.8259 22Z" fill="#00AEB3"/>
<path d="M53.2414 33.1003C57.5049 33.1003 62.8064 36.0569 62.8064 40.7435V63.8305C62.5247 63.8949 62.2418 63.9592 61.9578 64.0236C61.7612 64.0681 61.564 64.1128 61.3663 64.1575L61.362 64.1585C59.1523 64.6585 56.8829 65.172 54.7021 65.7743C49.9945 67.0746 45.2969 68.8863 42.0355 72.3092C39.9997 74.4459 38.6277 77.0929 38.0561 80.371C36.5276 78.8772 35.582 76.8123 35.582 74.5313C35.582 73.4466 35.7958 72.4108 36.1844 71.4621C33.3331 69.5137 31.4678 66.2784 31.4678 62.6167C31.4678 59.0436 33.244 55.8764 35.9793 53.9149C36.4083 53.6641 36.8572 53.4394 37.3264 53.2453C40.3661 51.9882 44.7007 51.8399 50.8548 55.068C51.9146 55.6239 53.2342 55.2337 53.8023 54.1964C54.3703 53.1591 53.9716 51.8676 52.9117 51.3117C46.0315 47.7027 40.387 47.4537 35.8968 49.2128C36.5197 44.664 39.6526 40.8931 43.887 39.2783C44.8088 36.0973 48.6468 33.1003 53.2414 33.1003Z" fill="white"/>
<path d="M42.1616 82.5839C42.1738 82.5866 42.1859 82.5892 42.1981 82.5918C42.1922 82.7318 42.1892 82.8726 42.1892 83.014C42.1892 88.5862 46.8045 93.1033 52.4978 93.1033C52.5667 93.1033 52.6355 93.1026 52.704 93.1013C54.5652 95.5494 57.3335 97.2979 60.522 97.8702C61.7697 98.0941 62.8064 97.0662 62.8064 95.8247V68.2058L62.3594 68.307C60.1293 68.8118 57.9598 69.3028 55.8847 69.876C51.3276 71.1346 47.6246 72.6922 45.2201 75.2158C43.588 76.9288 42.4179 79.2379 42.1616 82.5839Z" fill="white"/>
<path fill-rule="evenodd" clip-rule="evenodd" d="M67.195 67.1716V95.8247C67.195 97.0662 68.2317 98.0941 69.4794 97.8702C72.6679 97.2979 75.4362 95.5494 77.2974 93.1013C77.3286 93.1019 77.3599 93.1023 77.3913 93.1027C77.4082 93.1029 77.425 93.103 77.442 93.1031C77.4625 93.1032 77.483 93.1033 77.5036 93.1033C81.8121 93.1033 85.5033 90.5163 87.044 86.8428C83.7634 86.8508 79.9901 85.8603 75.6548 83.5862C74.5949 83.0303 74.1962 81.7387 74.7643 80.7015C75.3323 79.6642 76.6519 79.274 77.7118 79.8299C82.1563 82.1613 85.5178 82.7787 88.083 82.5268C91.7261 81.615 94.4194 78.381 94.4194 74.5313C94.4194 73.4466 94.2056 72.4108 93.817 71.4621C96.6684 69.5137 98.5337 66.2784 98.5337 62.6167C98.5337 58.9758 96.6895 55.7565 93.8656 53.8047C94.096 52.8674 94.218 51.8888 94.218 50.8823C94.218 45.6005 90.8572 41.087 86.1144 39.2783C85.1926 36.0973 81.3546 33.1003 76.7601 33.1003C72.4965 33.1003 67.195 36.0569 67.195 40.7435V62.7635C67.7784 62.6083 68.3538 62.4478 68.92 62.2799C73.371 60.9603 76.897 59.285 79.0914 56.6107C79.8443 55.6931 81.2147 55.5466 82.1522 56.2835C83.0898 57.0205 83.2394 58.3617 82.4865 59.2793C79.4429 62.9884 74.8535 64.9738 70.1824 66.3587C69.202 66.6493 68.202 66.9178 67.195 67.1716ZM75.6055 53.2096L83.2729 53.4868C84.0509 53.515 84.4547 52.5894 83.8959 52.0589L78.3883 46.8307C76.5969 45.1301 73.6448 45.5554 72.43 47.689C71.0503 50.1124 72.7729 53.1071 75.6055 53.2096ZM86.427 52.6576C85.4589 51.7385 85.4354 50.2253 86.3745 49.2778C87.3135 48.3303 88.8596 48.3073 89.8277 49.2264C90.7958 50.1455 90.8193 51.6586 89.8802 52.6061C88.9412 53.5536 87.3951 53.5767 86.427 52.6576ZM85.6783 55.7701L86.1949 63.2624C86.3857 66.0304 89.4966 67.6244 91.9295 66.2008C94.0716 64.9475 94.416 62.0467 92.6247 60.346L87.1176 55.1173C86.5589 54.5867 85.6259 55.0099 85.6783 55.7701Z" fill="white"/>
</svg>
