<svg width="130" height="130" viewBox="0 0 130 130" fill="none" xmlns="http://www.w3.org/2000/svg">
<path fill-rule="evenodd" clip-rule="evenodd" d="M15.4656 81.7023C12.9544 80.7983 10.8301 79.4368 9.16472 77.6034C8.53392 76.909 8.03326 76.2111 7.64313 75.5863C7.19621 74.9278 6.80204 74.2169 6.46941 73.4565C4.23659 68.3639 4.8958 63.4238 6.15928 59.8642L6.161 59.8593C7.36225 56.4809 9.30938 53.6321 11.1153 51.4249C12.8595 49.2857 14.9344 47.1892 17.1568 45.1811C17.3783 44.9798 17.601 44.7799 17.8244 44.5813C19.8328 42.7968 22.0623 40.9901 24.4642 39.1672C24.4783 39.1403 24.4925 39.1134 24.5066 39.0865C26.5793 35.1449 29.0795 30.3904 32.564 26.757C35.3458 23.8486 38.7152 21.5607 42.4645 20.1461C42.4651 20.1459 42.4658 20.1456 42.4664 20.1454C42.909 19.9783 43.3655 19.8304 43.8303 19.6995C43.7996 16.4328 44.9242 13.1076 47.3877 10.3948L47.4019 10.3793C53.3748 3.83214 63.9188 4.73874 68.6564 12.3443C68.6591 12.3487 68.6618 12.3531 68.6646 12.3575L68.7874 12.5539C73.2891 11.9421 77.8921 14.0081 80.4371 18.0218C80.593 18.2678 80.7389 18.5168 80.8749 18.7686C83.0795 18.9454 85.6164 19.2987 87.8128 20.1267C91.1062 21.3626 94.0692 23.2605 96.6048 25.6349C97.6721 25.3752 98.7224 25.1638 99.7441 25.0127C100.648 24.8781 101.737 24.7588 102.945 24.7397C104.783 24.6786 106.776 24.8355 108.747 25.4367L108.759 25.4402C113.161 26.7884 116.869 30.0079 118.592 34.6457L118.607 34.6867C119.861 38.1105 120.399 43.2064 117.468 48.6586C117.467 48.6599 117.466 48.6613 117.465 48.6626C117.465 48.6638 117.464 48.665 117.464 48.6661C117.284 48.9993 117.095 49.3269 116.896 49.6492C118.379 50.4047 119.91 51.4223 121.309 52.8276C123.44 54.9685 124.857 57.602 125.588 60.5575C125.764 61.2674 125.877 61.9747 125.934 62.6732C126.09 64.3341 125.997 66.2468 125.373 68.3129C124.546 71.0535 122.993 73.3696 121.115 75.3493C118.382 78.2308 114.355 81.0207 108.848 83.9685C107.246 87.0319 105.608 89.4952 103.223 92.4548C95.5356 102.016 86.1656 106.117 78.7482 109.363C77.7853 109.784 76.8553 110.191 75.9661 110.594L75.9568 110.598C69.2295 113.636 61.3388 113.894 54.3183 110.787C54.3179 110.787 54.3175 110.787 54.317 110.786C53.6794 110.505 53.0265 110.22 52.3605 109.93C49.5574 108.709 46.5214 107.387 43.4109 105.73C40.3627 106.123 37.6771 106.304 35.3021 106.304L35.1983 106.272C29.4663 106.266 24.7269 105.255 21.0418 102.849C17.1558 100.312 15.6913 97.0204 15.0876 95.4917C15.0351 95.3674 14.9841 95.2417 14.9347 95.1145L14.9187 95.0731C13.1898 90.561 13.8669 86.3619 14.7412 83.6208L14.7681 83.5376C14.9761 82.906 15.211 82.2937 15.4656 81.7023Z" fill="white"/>
<path d="M55.7491 23.4261L64.0019 25.7651C64.8393 26.0024 65.5248 25.0694 65.0594 24.3256L60.4734 16.9956C58.9818 14.6115 55.6624 14.3086 53.7738 16.3844C51.6287 18.742 52.7003 22.5619 55.7491 23.4261Z" fill="#011635"/>
<path d="M67.6485 25.6675C66.8424 24.3789 67.2207 22.6728 68.4933 21.8567C69.766 21.0405 71.4511 21.4235 72.2572 22.712C73.0633 24.0005 72.6851 25.7067 71.4124 26.5228C70.1398 27.3389 68.4546 26.956 67.6485 25.6675Z" fill="#011635"/>
<path d="M58.2606 36.1559C59.4857 35.3923 63.0159 33.1425 63.0159 33.1425C63.2919 32.9655 63.482 32.6794 63.54 32.3538L64.1302 29.0377C64.2524 28.3508 63.8539 27.6828 63.206 27.4676L59.9211 26.569C59.6056 26.4829 59.2688 26.5346 58.9928 26.7117L57.8203 27.469L53.5174 30.2486C47.0146 34.3024 38.596 39.586 31.3169 44.9683C30.7958 45.3536 30.2805 45.7394 29.7722 46.1254C25.1416 49.641 20.8712 53.3233 17.992 56.8493C16.5548 58.6095 15.3158 60.508 14.6156 62.4828C13.8996 64.5024 13.6736 66.8435 14.6766 69.125C15.5349 71.0775 17.2258 72.0277 18.49 72.4841C19.8292 72.9675 21.3783 73.193 22.94 73.2871C24.0322 73.353 25.2317 73.3595 26.5197 73.3139C25.9505 71.961 25.4578 70.5743 25.0994 69.1364C24.8229 68.0268 24.6724 66.8939 24.6279 65.7471C24.1876 65.7428 23.7733 65.729 23.3857 65.7057C22.551 65.6554 21.9349 65.5655 21.5029 65.4688C21.5302 65.3471 21.5711 65.203 21.6313 65.0333C21.9255 64.2033 23.7004 61.6273 23.7004 61.6273C23.7004 61.6273 24.6491 60.5137 25.1977 59.9347C27.4785 57.5278 30.5901 54.8772 34.2156 52.1248C41.3895 46.6783 51.1321 40.6019 58.0482 36.2884L58.2606 36.1559Z" fill="#011635"/>
<path d="M64.5664 37.52L66.0049 28.9662C66.1508 28.0983 67.2769 27.8696 67.7421 28.6134L72.3275 35.9438C73.819 38.3281 72.6708 41.4959 70.0101 42.3375C66.988 43.2934 64.035 40.68 64.5664 37.52Z" fill="#011635"/>
<path d="M105.111 33.8824C103.617 33.4862 101.994 33.5545 100.513 33.7693C98.3419 34.0842 95.7807 34.8255 92.9974 35.8523C91.9215 36.2493 90.8124 36.6889 89.6799 37.163C68.033 46.2251 44.5559 60.2287 28.6125 77.7059C27.4492 78.9812 26.4303 80.2248 25.5919 81.4207C24.6014 82.8336 23.7569 84.3275 23.2698 85.8473C22.7831 87.3656 22.5604 89.2177 23.27 91.0569C24.6897 94.7364 28.525 95.8293 31.3643 96.1767C34.5539 96.567 38.5403 96.3122 42.8496 95.6829C43.4829 95.5904 44.1282 95.4891 44.7845 95.3793C41.8423 93.6131 39.0062 91.4971 36.3285 88.7259C34.7359 88.8034 33.3745 88.7726 32.2644 88.6367C31.2278 88.5099 30.6533 88.328 30.3531 88.1983C30.5209 87.6748 30.9193 86.8609 31.6702 85.7898C31.974 85.3565 32.319 84.9021 32.7041 84.428C32.7316 84.3943 32.7592 84.3604 32.787 84.3265C34.2971 82.4822 36.3734 80.3101 38.9996 77.9646C54.4533 64.1627 73.4598 52.1718 92.5462 44.1816C94.1205 43.5225 95.5605 42.9721 96.8542 42.5304C98.5288 41.9587 99.9585 41.5691 101.118 41.362C101.054 41.4271 100.987 41.4945 100.916 41.5642C100.121 42.3472 99.0356 43.1995 97.6728 44.1045L97.6867 44.1315C98.7374 46.1591 99.9303 48.4763 101.035 50.9442C103.031 49.6729 104.774 48.3588 106.144 47.0111C108.311 44.879 110.69 41.4671 109.246 37.5194C108.468 35.3936 106.731 34.3119 105.111 33.8824Z" fill="#011635"/>
<path d="M57.6115 101.575C62.1093 103.564 67.2816 103.436 71.7635 101.412C72.7291 100.976 73.6936 100.551 74.655 100.127C82.1107 96.8419 89.3807 93.6383 95.549 85.9594C97.6258 83.3738 98.9201 81.4046 100.235 78.8661L100.24 78.8575C100.667 78.0333 101.096 77.205 101.513 76.368C102.664 74.0549 103.715 71.6759 104.348 69.1364C104.614 68.0687 104.755 66.9662 104.792 65.8409C104.812 65.2258 104.801 64.604 104.762 63.9773C101.198 64.6486 96.3995 66.6657 91.1937 69.405C85.3934 72.457 79.4986 76.1815 74.9387 79.259C71.2082 81.7766 68.3712 83.8611 67.2104 84.79C65.6058 86.074 63.277 85.7978 62.0088 84.1732C61.86 83.9826 61.7324 83.7819 61.6257 83.574C60.823 82.0101 61.2017 80.0401 62.618 78.9068C65.5099 76.5928 76.7591 68.5493 87.7782 62.7511C93.0445 59.9801 98.5819 57.5454 103.256 56.6342C102.627 54.6923 101.855 52.7767 101.035 50.9442C99.9303 48.4763 98.7374 46.1591 97.6867 44.1315L97.6728 44.1045C97.3956 43.5697 97.1233 43.0448 96.8542 42.5304C95.5605 42.9721 94.1205 43.5225 92.5462 44.1816C73.4598 52.1718 54.4533 64.1627 38.9996 77.9646C36.3734 80.3101 34.2971 82.4822 32.787 84.3265L32.7041 84.428C33.0857 84.9392 33.4831 85.4501 33.8997 85.9685C34.6933 86.9558 35.5034 87.872 36.3285 88.7259C39.0062 91.4971 41.8423 93.6131 44.7845 95.3793C48.3336 97.5099 52.0371 99.1315 55.8027 100.78C56.4042 101.044 57.0073 101.308 57.6115 101.575Z" fill="#FFC72C"/>
<path fill-rule="evenodd" clip-rule="evenodd" d="M63.0159 33.1425C63.0159 33.1425 59.4857 35.3923 58.2606 36.1559L58.0482 36.2884C51.1321 40.6019 41.3895 46.6783 34.2156 52.1248C30.5901 54.8772 27.4785 57.5278 25.1977 59.9347C24.7744 61.8819 24.5536 63.8339 24.6279 65.7471C24.6724 66.8939 24.8229 68.0268 25.0994 69.1364C25.4578 70.5743 25.9505 71.961 26.5197 73.3139C27.1433 74.7962 27.8816 76.2826 28.6125 77.7059C44.5559 60.2287 68.033 46.2251 89.6799 37.163C90.8124 36.6889 91.9215 36.2493 92.9974 35.8523C92.2374 34.7411 91.4456 33.7322 90.5891 32.8374C88.712 30.878 86.501 29.396 84.0994 28.4904C81.3848 27.4676 75.6776 27.4676 69.6131 27.4676H63.206C63.8539 27.6828 64.2524 28.3508 64.1302 29.0377L63.54 32.3538C63.482 32.6794 63.2919 32.9655 63.0159 33.1425ZM66.0049 28.9662L64.5664 37.52C64.035 40.68 66.988 43.2934 70.0101 42.3375C72.6708 41.4959 73.819 38.3281 72.3275 35.9438L67.7421 28.6134C67.2769 27.8696 66.1508 28.0983 66.0049 28.9662Z" fill="#FFC72C"/>
<path d="M45.3479 28.4904C42.9463 29.396 40.7354 30.878 38.8583 32.8374C36.3066 35.5038 34.3993 39.1218 32.133 43.4206C32.0107 43.6526 31.8874 43.8865 31.7629 44.1223C31.6162 44.4002 31.4674 44.6822 31.3169 44.9683C38.596 39.586 47.0146 34.3024 53.5174 30.2486L57.8203 27.469C52.5328 27.4804 47.7595 27.5818 45.3479 28.4904Z" fill="#FFC72C"/>
<path d="M111.567 70.3016C112.742 69.3755 113.849 68.3457 114.651 67.2217C114.901 66.8719 115.169 66.4447 115.4 65.9529C115.863 64.9655 116.177 63.7181 115.89 62.316C115.194 59.4711 113.537 57.9245 110.99 56.9364C108.703 56.0491 106.126 56.1307 103.757 56.5418C103.591 56.5706 103.424 56.6014 103.256 56.6342C98.5819 57.5454 93.0445 59.9801 87.7782 62.7511C76.7591 68.5493 65.5099 76.5928 62.618 78.9068C61.2017 80.0401 60.823 82.0101 61.6257 83.574C61.7324 83.7819 61.86 83.9826 62.0088 84.1732C63.277 85.7978 65.6058 86.074 67.2104 84.79C68.3712 83.8611 71.2082 81.7766 74.9387 79.259C79.4986 76.1815 85.3934 72.457 91.1937 69.405C96.3995 66.6657 101.198 64.6486 104.762 63.9773C104.762 63.9773 106.9 63.6342 107.601 63.7764C107.415 63.9391 107.202 64.1166 106.959 64.3085C106.351 64.7876 105.626 65.3 104.792 65.8409C104.755 66.9662 104.614 68.0687 104.348 69.1364C103.715 71.6759 102.664 74.0549 101.513 76.368C101.67 76.2885 101.826 76.2091 101.981 76.1298C105.844 74.1561 109.19 72.1744 111.567 70.3016Z" fill="#011635"/>
</svg>
