<?xml version="1.0" encoding="UTF-8" standalone="no"?>
<!DOCTYPE svg PUBLIC "-//W3C//DTD SVG 1.1//EN" "http://www.w3.org/Graphics/SVG/1.1/DTD/svg11.dtd">
<svg width="100%" height="100%" viewBox="0 0 500 500" version="1.1" xmlns="http://www.w3.org/2000/svg" xmlns:xlink="http://www.w3.org/1999/xlink" xml:space="preserve" xmlns:serif="http://www.serif.com/" style="fill-rule:evenodd;clip-rule:evenodd;stroke-linejoin:round;stroke-miterlimit:2;">
    <g>
        <g transform="matrix(0,-1.03758,-1.03758,0,249.999,-0.00103758)">
            <path d="M-240.945,-240.946C-374.015,-240.946 -481.89,-133.071 -481.89,-0.001C-481.89,133.07 -374.015,240.945 -240.945,240.945C-107.875,240.945 -0.001,133.07 -0.001,-0.001C-0.001,-133.071 -107.875,-240.946 -240.945,-240.946" style="fill:rgb(243,208,45);fill-rule:nonzero;"/>
        </g>
        <g transform="matrix(1.03758,0,0,1.03758,347.529,220.912)">
            <path d="M0,132.329C-3.631,134.128 -7.859,134.719 -11.484,134.708C-23.572,134.669 -34.426,127.39 -39.223,115.886L-47.611,95.921L-60.197,64.465C-60.191,63.249 -60.795,62.037 -61.395,60.827L-78.773,17.26C-50.992,22.19 0.27,51.964 17.053,92.507C23.041,108.845 15.732,126.341 0,132.329M-94.42,179.152C-114.355,179.089 -130.617,164.524 -137.199,142.15L-51.393,142.435C-58.115,165.376 -74.473,179.225 -94.42,179.152M-177.059,134.165C-181.285,134.152 -184.908,133.537 -188.529,131.706C-203.613,125.012 -211.402,107.465 -204.709,92.378C-187.654,51.342 -136.195,21.906 -108.389,17.766L-126.656,62.424L-140.07,95.611L-148.596,115.523C-154.066,126.988 -164.957,134.201 -177.059,134.165M-103.682,56.456L-93.934,32.922L-84.34,56.514L-103.682,56.456ZM-117.084,89.649L-111.602,75.768L-76.553,75.887L-71.154,89.796L-117.084,89.649ZM-125.605,109.558L-63.369,109.769L-57.975,123.682L-131.088,123.436L-125.605,109.558ZM-93.668,-46.84C-77.352,-46.789 -63.508,-31.03 -63.557,-18.339C-63.602,-3.233 -88.381,-2.109 -93.211,-2.129C-98.643,-2.146 -122.816,-2.824 -122.77,-18.535C-123.932,-31.231 -109.982,-46.896 -93.668,-46.84" style="fill:white;fill-rule:nonzero;"/>
        </g>
        <g transform="matrix(1.03758,0,0,1.03758,226.566,135.257)">
            <path d="M0,35.027C-2.416,35.027 -4.734,33.661 -5.832,31.329L-15.836,10.086C-17.352,6.868 -15.971,3.03 -12.754,1.513C-9.533,0 -5.695,1.379 -4.18,4.597L5.824,25.841C7.338,29.058 5.959,32.896 2.74,34.413C1.854,34.831 0.92,35.027 0,35.027" style="fill:white;fill-rule:nonzero;"/>
        </g>
        <g transform="matrix(1.03758,0,0,1.03758,273.437,135.259)">
            <path d="M0,35.025C-0.92,35.025 -1.855,34.829 -2.742,34.411C-5.963,32.894 -7.342,29.056 -5.824,25.837L4.184,4.594C5.701,1.377 9.539,0 12.756,1.511C15.977,3.028 17.355,6.866 15.838,10.086L5.83,31.33C4.732,33.659 2.416,35.025 0,35.025" style="fill:white;fill-rule:nonzero;"/>
        </g>
        <g transform="matrix(1.03758,0,0,1.03758,347.081,94.1475)">
            <path d="M0,163.653C-1.062,163.653 -2.139,163.391 -3.131,162.838C-6.238,161.107 -7.354,157.184 -5.621,154.077L19.178,109.555L-37.391,11.971L-149.74,11.971L-206.227,109.418L-179.279,153.871C-177.436,156.914 -178.406,160.875 -181.449,162.719C-184.49,164.566 -188.451,163.591 -190.295,160.55L-219.223,112.832C-220.445,110.817 -220.471,108.299 -219.287,106.263L-159.025,2.298C-157.873,0.313 -155.748,-0.913 -153.451,-0.913L-33.68,-0.913C-31.381,-0.913 -29.258,0.313 -28.105,2.298L32.16,106.26C33.297,108.226 33.32,110.643 32.215,112.628L5.631,160.347C4.453,162.46 2.26,163.653 0,163.653" style="fill:white;fill-rule:nonzero;"/>
        </g>
    </g>
</svg>
